<svg width="9" height="12" viewBox="0 0 9 12" fill="none" xmlns="http://www.w3.org/2000/svg">
<path fill-rule="evenodd" clip-rule="evenodd" d="M8.91527 4.4897C9.09054 3.31622 8.19707 2.68539 6.97536 2.26456L7.37166 0.67493L6.40378 0.433785L6.01795 1.98152C5.76385 1.91814 5.50258 1.85833 5.24297 1.79908L5.63156 0.241145L4.6645 0L4.26792 1.58908C4.05737 1.54112 3.85067 1.49372 3.65004 1.44384L3.65114 1.43888L2.31672 1.10568L2.05931 2.13916C2.05931 2.13916 2.77723 2.30369 2.76208 2.31389C3.15397 2.41172 3.22507 2.67106 3.21295 2.87665L2.76153 4.68758C2.78853 4.69447 2.82353 4.70439 2.86212 4.71983L2.76015 4.69447L2.12711 7.23131C2.07915 7.35037 1.95762 7.52896 1.68368 7.46116C1.69332 7.47521 0.980361 7.28561 0.980361 7.28561L0.5 8.39349L1.75947 8.7074C1.90165 8.74303 2.0421 8.77967 2.18102 8.81591C2.27098 8.83938 2.36029 8.86268 2.449 8.88543L2.04856 10.4935L3.01507 10.7347L3.41193 9.14394C3.67567 9.21559 3.93197 9.28173 4.18276 9.34402L3.78756 10.9273L4.75517 11.1685L5.15561 9.56367C6.80559 9.87592 8.04659 9.74997 8.56829 8.2579C8.98913 7.05631 8.54762 6.36319 7.6795 5.91094C8.31172 5.7646 8.78794 5.34873 8.91499 4.4897H8.91527ZM6.70417 7.58986C6.42948 8.69269 4.70289 8.23638 3.91361 8.02778C3.84293 8.0091 3.77976 7.99241 3.72583 7.979L4.25717 5.84893C4.32309 5.86539 4.40362 5.88346 4.49484 5.90393L4.49486 5.90393C5.31142 6.08716 6.98482 6.46268 6.70445 7.58986H6.70417ZM4.65899 4.9155C5.31757 5.0912 6.75311 5.47418 7.00319 4.47234C7.25887 3.44743 5.86295 3.13852 5.1812 2.98765C5.10456 2.97069 5.03694 2.95573 4.98171 2.94197L4.49997 4.87388C4.54556 4.88524 4.59906 4.89951 4.65899 4.9155Z" fill="#F7931A"/>
</svg>
