<svg width="17" height="9" viewBox="0 0 17 9" fill="none" xmlns="http://www.w3.org/2000/svg">
<path fill-rule="evenodd" clip-rule="evenodd" d="M14.275 1.7297C14.4207 1.72733 14.5672 1.72891 14.7129 1.73364C14.8341 2.499 14.7159 3.27066 14.729 4.04075C14.5833 4.06913 14.3862 4.16371 14.2811 4.00213C13.9444 3.60565 13.5725 3.2415 13.2496 2.83162C13.2166 2.82453 13.1507 2.80877 13.1177 2.80088C13.1162 3.17292 13.1146 3.54496 13.1123 3.917C13.0832 3.96035 13.0257 4.04627 12.9965 4.08962C12.8915 4.08962 12.7872 4.08962 12.6829 4.08883C12.656 4.0439 12.6016 3.95326 12.5739 3.90833C12.5701 3.37865 12.577 2.84975 12.5678 2.32086C12.5594 2.11592 12.5862 1.91178 12.6476 1.71709C12.7641 1.72024 12.8807 1.72497 12.9973 1.72891C13.3892 2.17741 13.7834 2.62432 14.1814 3.06651C14.2129 2.62117 14.1676 2.16795 14.275 1.7297Z" fill="#FFFFFE"/>
<path fill-rule="evenodd" clip-rule="evenodd" d="M4.86643 0.210022C4.20305 0.189528 3.55194 0.59546 3.25207 1.2016C3.01203 1.61226 3.03887 2.10332 3.07261 2.56127C3.14393 2.74098 3.21295 2.92147 3.28197 3.10196L3.28198 3.10199C3.16311 3.82321 2.71753 4.48846 2.06181 4.79508C1.92639 4.8731 1.77446 4.87545 1.62272 4.8778C1.46941 4.88018 1.3163 4.88255 1.18063 4.96297C0.974326 5.07962 0.803304 5.26643 0.704371 5.48634C0.619243 5.86075 0.618476 6.32895 0.937514 6.59221C1.39613 7.09509 2.3195 6.88149 2.53807 6.23357C2.63764 6.03526 2.59978 5.82803 2.56199 5.62124C2.54361 5.52064 2.52524 5.42014 2.52273 5.32082C2.68839 4.66502 3.17001 4.08411 3.79428 3.84922C4.03691 3.80105 4.27496 3.87645 4.50806 3.95028C4.5763 3.9719 4.64412 3.99338 4.71151 4.01159C4.82109 4.00811 4.93464 3.98815 5.04889 3.96807C5.32328 3.91983 5.60172 3.87088 5.83888 4.04785C6.76915 4.57753 7.41873 5.56911 7.56905 6.64896C7.58132 7.29136 7.8183 7.96923 8.36664 8.32786C8.8613 8.65892 9.53696 8.707 10.0608 8.42087C10.5646 8.16786 10.9327 7.62714 10.9634 7.04859C10.9765 6.71517 11.044 6.37939 11.2058 6.08775C11.4757 5.56359 12.0379 5.21599 12.6131 5.20653C12.7694 5.20137 12.9189 5.24076 13.0686 5.28018C13.1709 5.3071 13.2731 5.33404 13.3777 5.34683C14.0871 5.43432 14.8241 5.16081 15.3264 4.64138C15.7505 4.19367 16.0028 3.57965 16.0197 2.95459C16.035 1.84715 15.2321 0.777538 14.1684 0.554473C12.9704 0.223422 11.6383 1.0881 11.3546 2.31771C11.273 2.59748 11.2765 2.88566 11.28 3.17399C11.2827 3.39257 11.2854 3.61122 11.251 3.82636C11.0754 4.62167 10.2862 5.30348 9.4733 5.15529C9.36815 5.14225 9.26185 5.13631 9.15552 5.13036C8.94699 5.11871 8.73829 5.10704 8.53766 5.04179C7.76845 4.84316 7.09739 4.27091 6.76992 3.52841C6.64798 3.23756 6.52757 2.91912 6.6104 2.59911C6.69323 2.22076 6.70703 1.81562 6.56745 1.4491C6.32281 0.731033 5.61571 0.184799 4.86643 0.210022ZM14.1958 2.61788C14.1997 2.31968 14.2035 2.02137 14.275 1.7297C14.4207 1.72734 14.5672 1.72892 14.7129 1.73364C14.7911 2.22793 14.7696 2.72484 14.748 3.22226C14.7362 3.49506 14.7244 3.76801 14.729 4.04075C14.702 4.04601 14.6732 4.05354 14.6436 4.06129C14.5134 4.09538 14.3667 4.13379 14.2811 4.00213C14.1409 3.83707 13.9947 3.67761 13.8483 3.51812C13.6432 3.29452 13.4381 3.07086 13.2496 2.83163C13.2166 2.82454 13.1507 2.80877 13.1177 2.80089L13.1177 2.80227C13.1162 3.17385 13.1146 3.54543 13.1123 3.917L12.9965 4.08962H12.9964C12.8914 4.08962 12.7871 4.08962 12.6829 4.08884C12.656 4.04391 12.6016 3.95326 12.5739 3.90833C12.5724 3.69645 12.5726 3.48469 12.5728 3.27301C12.5731 2.95551 12.5733 2.63819 12.5678 2.32087C12.5594 2.11593 12.5862 1.91178 12.6476 1.71709C12.7253 1.71919 12.803 1.722 12.8807 1.7248C12.9196 1.7262 12.9584 1.7276 12.9973 1.72892C13.3892 2.17741 13.7834 2.62433 14.1814 3.06652C14.1919 2.91757 14.1939 2.76774 14.1958 2.61788Z" fill="#4365E3"/>
</svg>
