<svg width="15" height="14" viewBox="0 0 15 14" fill="none" xmlns="http://www.w3.org/2000/svg">
<path fill-rule="evenodd" clip-rule="evenodd" d="M7.33613 13.9214C7.40927 13.9691 7.49459 13.9944 7.58175 13.9943L7.5819 13.9938C7.66746 13.9931 7.75117 13.9687 7.82378 13.9233L14.4888 9.6231C14.8063 9.41858 14.9979 9.06542 14.9967 8.68662V7.40185C15.0006 7.2678 14.9475 7.13842 14.8508 7.04594C14.6993 6.90873 14.4751 6.89022 14.3033 7.00075L7.5129 11.3506C7.5086 11.3536 7.50288 11.3536 7.49858 11.3506L0.841128 7.10166C0.677672 6.99746 0.578946 6.81628 0.579678 6.62187V5.41105C0.579441 5.40866 0.579966 5.40626 0.581178 5.40419C0.585017 5.39801 0.593056 5.39601 0.599328 5.39967L7.34775 9.66587C7.4958 9.75844 7.68338 9.75844 7.83143 9.66587L14.7881 5.25531C14.9197 5.17149 14.9994 5.02589 14.9994 4.86942C14.9994 4.71295 14.9197 4.56735 14.7881 4.48354L7.89038 0.0714656C7.74837 -0.0193161 7.56799 -0.0236936 7.42178 0.0600939L7.41428 0.0646125L0.279228 4.73379L0.150003 4.82258L0.127503 4.8408C0.0454592 4.92581 -0.000288712 5.03963 1.37116e-06 5.15801V6.62262C-0.000118487 7.01711 0.202061 7.38387 0.535053 7.59321L7.26113 11.89C7.40989 11.9849 7.59986 11.9849 7.74863 11.89L14.4046 7.6335C14.4065 7.63264 14.4086 7.63213 14.4107 7.63199C14.4181 7.63184 14.4243 7.63747 14.425 7.64487V8.69167C14.4254 8.87158 14.3341 9.0392 14.1831 9.13599L7.59293 13.388C7.58862 13.391 7.58291 13.391 7.5786 13.388L0.624903 8.89086C0.619704 8.88631 0.611952 8.88631 0.606753 8.89086L0.307503 9.35831C0.302965 9.36353 0.302965 9.37131 0.307503 9.37653L7.33613 13.9214ZM7.58168 9.12538L1.01873 4.97282C1.0178 4.97196 1.01704 4.97094 1.01648 4.96981C1.01406 4.96694 1.01293 4.96319 1.01336 4.95945C1.01378 4.95572 1.01573 4.95233 1.01873 4.95008L7.64318 0.611584C7.64748 0.608571 7.6532 0.608571 7.6575 0.611584L14.2913 4.85677C14.2928 4.85762 14.2942 4.85893 14.295 4.86053C14.2971 4.86341 14.2978 4.86701 14.2971 4.87047C14.2964 4.87393 14.2943 4.87694 14.2913 4.87876L7.596 9.12538C7.5917 9.12839 7.58598 9.12839 7.58168 9.12538Z" fill="url(#paint0_linear_1_274)"/>
<defs>
<linearGradient id="paint0_linear_1_274" x1="1.38423e-06" y1="6.39483" x2="15" y2="6.39483" gradientUnits="userSpaceOnUse">
<stop stop-color="white"/>
<stop stop-color="#21BBC0"/>
<stop offset="0.34" stop-color="#20B9C0"/>
<stop offset="1" stop-color="#1387C9"/>
</linearGradient>
</defs>
</svg>
