<svg width="11" height="15" viewBox="0 0 11 15" fill="none" xmlns="http://www.w3.org/2000/svg">
<path fill-rule="evenodd" clip-rule="evenodd" d="M6.92153 14.1576C5.87824 14.1576 5.11783 13.9197 4.6403 13.4285C4.16278 12.9373 3.9318 12.4234 3.9318 11.8563C3.9318 11.6563 3.97073 11.479 4.06156 11.3398C4.13942 11.2005 4.25361 11.0891 4.39635 11.0132C4.53909 10.9372 4.71816 10.8866 4.92578 10.8866C5.1334 10.8866 5.31247 10.9246 5.45521 11.0132C5.59795 11.0891 5.71214 11.2005 5.79 11.3398C5.86786 11.479 5.91976 11.6537 5.91976 11.8563C5.91976 12.1069 5.85488 12.3095 5.73809 12.4588C5.62131 12.6107 5.46819 12.7221 5.2995 12.7728C5.44223 12.9601 5.67321 13.0994 5.98205 13.188C6.29088 13.2766 6.59972 13.3146 6.91115 13.3146C7.34974 13.3146 7.73643 13.2006 8.0842 12.9753C8.43196 12.75 8.68889 12.4107 8.85758 11.9702C9.02627 11.5297 9.10153 11.0284 9.10153 10.4613C9.10153 9.84605 9.0107 9.32957 8.83163 8.9017C8.64996 8.46117 8.39303 8.13457 8.04527 7.93456C7.69751 7.72189 7.32379 7.62062 6.91115 7.62062C6.64124 7.62062 6.31943 7.73455 5.91976 7.94722L5.19309 8.28648V7.93456L8.47867 3.66094H3.9318V8.09913C3.9318 8.4637 4.00966 8.76498 4.17575 9.0055C4.34445 9.24349 4.60137 9.35742 4.93616 9.35742C5.20607 9.35742 5.45262 9.2688 5.69657 9.09411C5.94052 8.91689 6.14814 8.70422 6.32721 8.46623C6.35317 8.4156 6.37912 8.37762 6.40507 8.36496C6.444 8.33964 6.46995 8.32699 6.50888 8.32699C6.57376 8.32699 6.63864 8.3523 6.72688 8.4156C6.80474 8.50421 6.84367 8.60295 6.84367 8.71688C6.84367 8.76751 6.81772 8.84347 6.80474 8.9422C6.62307 9.35741 6.36614 9.67135 6.03136 9.88402C5.69657 10.0967 5.33583 10.2106 4.93616 10.2106C3.94478 10.2106 3.27261 10.0233 2.88592 9.64604C2.5122 9.2688 2.32015 8.75232 2.32015 8.11178V3.66094H0V2.83052H2.33313V0.944349L1.8037 0.427869V0H3.35047L3.92921 0.288622V2.81786L9.94759 2.8052L10.5393 3.38244L6.85665 6.99274C7.07465 6.90413 7.30822 6.8535 7.55217 6.82818C7.95184 6.82818 8.40341 6.95477 8.89132 7.20541C9.3948 7.4434 9.78149 7.78265 10.0514 8.21052C10.3213 8.63839 10.503 9.04094 10.5808 9.43084C10.6587 9.82073 10.7106 10.16 10.7106 10.4739C10.7106 11.1651 10.5549 11.8056 10.259 12.3981C9.96316 12.988 9.51158 13.4412 8.89391 13.7298C8.28663 14.0184 7.63003 14.1576 6.92153 14.1576Z" fill="#3391F6"/>
</svg>
